<svg version="1.1" id="Layer_1" xmlns="http://www.w3.org/2000/svg" xmlns:xlink="http://www.w3.org/1999/xlink" x="0px" y="0px"
	 width="100%" viewBox="0 0 752 572" enable-background="new 0 0 752 572" xml:space="preserve">
<path fill="#FFFFFF" opacity="1.000000" stroke="none" 
	d="
M398.000000,573.000000 
	C265.333344,573.000000 133.166672,573.000000 1.000000,573.000000 
	C1.000000,382.333344 1.000000,191.666672 1.000000,1.000000 
	C251.666672,1.000000 502.333344,1.000000 753.000000,1.000000 
	C753.000000,191.666672 753.000000,382.333344 753.000000,573.000000 
	C634.833313,573.000000 516.666687,573.000000 398.000000,573.000000 
M320.183105,217.046356 
	C313.168579,214.738922 309.285980,209.849915 309.296906,203.338409 
	C309.307770,196.858719 313.142090,192.471863 321.485321,189.423645 
	C321.485321,180.361725 321.485321,171.289368 321.485321,162.144867 
	C320.003662,162.144867 318.839966,162.040390 317.699860,162.160385 
	C297.530762,164.283417 281.508942,182.598801 281.303589,203.734528 
	C281.106323,224.040054 298.007965,243.792160 318.088867,244.875183 
	C337.498779,245.922043 356.998596,245.304260 376.459015,245.392578 
	C376.732361,245.393829 377.007233,245.068344 377.295471,244.886459 
	C377.295471,235.844086 377.295471,226.806107 377.295471,217.165573 
	C358.289795,217.165573 339.674561,217.165573 320.183105,217.046356 
M455.949371,178.591888 
	C447.350464,167.480530 436.163025,161.711502 421.975952,161.810791 
	C406.489868,161.919159 391.002441,161.832550 375.515594,161.831009 
	C373.233307,161.830780 370.951019,161.830978 368.441772,161.830978 
	C368.441772,171.268326 368.441772,180.156723 368.441772,189.577972 
	C370.499664,189.577972 372.296448,189.577789 374.093262,189.578003 
	C389.913147,189.579880 405.733582,189.507278 421.552734,189.616470 
	C429.012268,189.667953 434.665436,194.007523 435.968781,200.244614 
	C437.496185,207.553818 434.254059,213.396942 427.053467,216.667603 
	C425.901154,217.191025 424.234894,218.388885 424.211456,219.310608 
	C423.993286,227.906937 424.082306,236.511047 424.082306,246.541351 
	C430.451843,244.508286 436.283356,243.525024 441.256805,240.909866 
	C464.802094,228.529205 471.088837,202.130829 455.949371,178.591888 
M386.936462,231.500000 
	C386.934235,238.664001 387.058258,245.830933 386.892822,252.991165 
	C386.740570,259.580292 382.780090,264.664825 376.847839,266.408234 
	C371.253937,268.052216 365.220551,266.141907 361.763916,261.320831 
	C360.433380,259.465088 359.665344,257.206055 358.645538,255.139954 
	C349.553772,255.139954 340.454071,255.139954 331.352295,255.139954 
	C331.978302,276.700134 348.421875,293.412170 370.183105,294.899353 
	C391.612549,296.363861 410.544281,281.646912 413.923523,260.740448 
	C414.558014,256.814972 414.837860,252.794189 414.862518,248.814804 
	C414.964386,232.369308 414.905212,215.922821 414.905212,199.296860 
	C405.360962,199.296860 396.310181,199.296860 386.936462,199.296860 
	C386.936462,209.896225 386.936462,220.198120 386.936462,231.500000 
M330.995667,163.503098 
	C330.995667,178.267776 330.995667,193.032440 330.995667,207.811646 
	C340.600861,207.811646 349.644684,207.811646 358.986969,207.811646 
	C358.986969,189.833435 358.940094,172.204468 359.008911,154.575958 
	C359.038422,147.016083 363.338104,141.763947 370.384735,140.288986 
	C376.947296,138.915344 382.807098,142.280182 386.013245,149.076035 
	C386.566467,150.248642 387.722595,151.983078 388.638000,152.006943 
	C397.250092,152.231293 405.870453,152.140213 414.712830,152.140213 
	C414.418396,149.929199 414.253784,148.292007 413.976776,146.674072 
	C410.576111,126.812851 395.420929,113.186325 374.420349,112.370041 
	C354.738861,111.605019 337.672150,123.180984 332.949066,142.257782 
	C331.336975,148.768951 331.593567,155.742783 330.995667,163.503098 
M176.784271,354.281830 
	C171.823395,359.486023 166.862534,364.690247 161.066284,370.770813 
	C161.066284,359.239868 161.066284,349.129639 161.066284,338.861816 
	C155.243195,338.861816 149.720398,338.861816 144.220856,338.861816 
	C144.220856,364.860962 144.220856,390.463440 144.220856,416.271118 
	C149.868607,416.271118 155.291458,416.271118 161.099625,416.271118 
	C161.099625,410.710571 161.781982,405.294403 160.949158,400.122192 
	C159.482742,391.014984 165.443115,386.812866 171.204025,381.784851 
	C178.380783,392.483398 185.295059,402.856018 192.307648,413.161774 
	C193.184235,414.450012 194.536545,416.274811 195.743332,416.334381 
	C202.151047,416.650757 208.582642,416.483154 215.997009,416.483154 
	C204.492447,400.187103 193.611542,384.774445 181.783157,368.019745 
	C191.935562,358.364471 201.977066,348.814697 212.204605,339.087982 
	C199.923004,337.068512 188.899490,337.240997 181.639709,348.972198 
	C180.522537,350.777435 178.730255,352.164948 176.784271,354.281830 
M559.521118,358.967957 
	C550.793884,357.300995 543.336182,359.817810 536.350769,367.343170 
	C536.350769,356.782440 536.350769,347.731354 536.350769,338.678650 
	C530.985718,338.678650 526.208679,338.678650 521.208557,338.678650 
	C521.208557,364.633972 521.208557,390.348999 521.208557,416.260071 
	C526.307556,416.260071 531.203735,416.260071 536.588501,416.260071 
	C536.588501,407.018127 536.447510,398.066071 536.653198,389.121948 
	C536.744019,385.175262 537.030457,381.095001 538.137085,377.343506 
	C539.640137,372.248047 544.494324,370.121277 550.711304,371.019165 
	C555.728516,371.743805 557.624390,375.246368 558.019897,379.748260 
	C558.354248,383.553436 558.395996,387.390991 558.421509,391.215210 
	C558.476685,399.489441 558.438477,407.764252 558.438477,416.283264 
	C563.892395,416.283264 568.792664,416.283264 573.816406,416.283264 
	C573.816406,402.714813 574.191284,389.409027 573.680908,376.137238 
	C573.356323,367.696320 569.347412,361.181946 559.521118,358.967957 
M366.937195,385.293976 
	C356.692596,389.218506 353.209473,395.013489 354.985199,405.178864 
	C356.279816,412.589783 363.079193,417.527130 372.400726,417.983917 
	C379.819214,418.347443 386.489838,416.346771 391.717072,412.254242 
	C393.338379,413.878357 394.545471,416.171112 396.013641,416.352692 
	C400.216644,416.872406 404.525604,416.535583 407.781006,416.535583 
	C407.781006,409.179932 407.781921,402.413788 407.780731,395.647614 
	C407.779572,388.986450 407.846527,382.324341 407.753601,375.664429 
	C407.666473,369.421692 405.701233,363.930908 399.443176,361.551605 
	C387.570099,357.037445 375.646362,356.921967 364.278473,363.168793 
	C358.987976,366.076019 356.663422,371.068604 356.381073,377.284119 
	C361.766693,377.284119 366.684113,377.284119 371.505951,377.284119 
	C374.202820,369.708008 378.725891,367.272827 386.345093,369.142426 
	C390.033264,370.047485 392.038055,372.334808 392.051636,376.255341 
	C392.064850,380.079285 389.633423,381.455200 386.399750,382.002197 
	C380.173737,383.055420 373.938263,384.052521 366.937195,385.293976 
M466.850006,364.737579 
	C457.111084,356.699371 435.319916,356.351379 425.509857,364.175781 
	C421.413483,367.443085 419.248596,371.750031 419.211884,377.322083 
	C424.394226,377.322083 429.333466,377.322083 434.194275,377.322083 
	C436.984528,369.977203 439.911011,368.164612 447.490509,368.898895 
	C451.627899,369.299744 454.475281,371.215057 454.851807,375.605591 
	C455.245514,380.196594 452.197174,381.510010 448.365112,382.162842 
	C441.655701,383.305939 434.827820,384.114441 428.322937,386.004059 
	C420.595154,388.248871 417.092468,393.746796 417.264465,401.265076 
	C417.450287,409.387451 421.509247,414.744690 429.372711,416.952698 
	C438.803802,419.600891 447.402863,417.448181 455.283936,411.794373 
	C456.887756,416.999451 461.233917,418.012054 471.664886,415.937164 
	C471.299622,412.824677 470.670929,409.718781 470.618408,406.603119 
	C470.452698,396.772980 470.795044,386.925293 470.327209,377.113647 
	C470.137939,373.144806 468.362457,369.251617 466.850006,364.737579 
M345.078522,407.443848 
	C345.040833,397.460571 345.275055,387.466980 344.898376,377.496521 
	C344.397217,364.233246 336.441345,357.706238 323.330292,358.540283 
	C316.635406,358.966125 311.577179,361.927368 307.125824,367.382935 
	C306.928894,364.346710 306.794373,362.272736 306.662384,360.237762 
	C301.631012,360.237762 297.038361,360.237762 292.304901,360.237762 
	C292.304901,379.017731 292.304901,397.552277 292.304901,416.222961 
	C297.476379,416.222961 302.378632,416.222961 307.701508,416.222961 
	C307.701508,406.791199 307.571747,397.670288 307.763763,388.556183 
	C307.843414,384.774414 308.129150,380.865997 309.183624,377.267914 
	C310.599823,372.435486 315.303345,370.352203 321.369171,370.965973 
	C326.413055,371.476349 328.569397,374.718658 329.050262,379.292816 
	C329.431915,382.923218 329.561340,386.591644 329.592987,390.245026 
	C329.667633,398.850677 329.616913,407.457367 329.616913,416.208984 
	C335.048492,416.208984 339.928864,416.208984 345.078491,416.208984 
	C345.078491,413.392212 345.078491,410.907806 345.078522,407.443848 
M502.113129,373.669312 
	C503.157959,372.629120 504.078552,370.907532 505.273315,370.689728 
	C507.808258,370.227570 510.486023,370.548767 513.321899,370.548767 
	C513.321899,366.753601 513.321899,363.523926 513.321899,359.781921 
	C509.454742,359.781921 505.883453,359.781921 502.019104,359.781921 
	C502.019104,353.998230 502.019104,348.723114 502.019104,343.249023 
	C496.807617,343.249023 491.917847,343.249023 486.552856,343.249023 
	C486.552856,348.897858 486.552856,354.302368 486.552856,360.201019 
	C483.175476,360.201019 480.271698,360.201019 477.397003,360.201019 
	C477.397003,363.825256 477.397003,366.924713 477.397003,370.246033 
	C480.531525,370.471771 483.445923,370.681641 486.696716,370.915771 
	C486.696716,373.094635 486.689178,374.901154 486.697937,376.707611 
	C486.743927,386.203888 486.634827,395.704590 486.898651,405.194885 
	C487.074615,411.524414 489.622192,414.912476 495.819183,416.067108 
	C501.435455,417.113586 507.262756,417.027435 513.254150,417.459167 
	C513.254150,412.635834 513.254150,408.779510 513.254150,404.924408 
	C502.243164,405.020691 502.113159,404.890839 502.112000,394.140198 
	C502.111298,387.641754 502.111877,381.143280 502.113129,373.669312 
M237.009918,387.995636 
	C238.532425,384.228455 239.024612,378.969421 241.816971,377.040955 
	C246.092896,374.087921 251.954010,373.430237 257.667236,371.633179 
	C257.667236,368.366913 257.667236,363.914856 257.667236,359.134766 
	C248.297363,357.229523 241.819031,361.498016 235.956467,370.066711 
	C235.956467,365.800293 235.956467,362.967224 235.956467,360.288391 
	C230.753860,360.288391 226.168549,360.288391 221.580765,360.288391 
	C221.580765,379.123322 221.580765,397.651855 221.580765,416.206604 
	C226.866302,416.206604 231.774597,416.206604 236.988434,416.206604 
	C236.988434,406.872162 236.988434,397.889374 237.009918,387.995636 
M264.191345,410.328094 
	C264.191345,412.256897 264.191345,414.185699 264.191345,416.259216 
	C269.745087,416.259216 274.655731,416.259216 279.622131,416.259216 
	C279.622131,397.403320 279.622131,378.855347 279.622131,360.266602 
	C274.411926,360.266602 269.506592,360.266602 264.191284,360.266602 
	C264.191284,376.821014 264.191284,393.093842 264.191345,410.328094 
M589.857849,416.564087 
	C593.793030,416.564087 597.728149,416.564087 601.543457,416.564087 
	C601.543457,397.282745 601.543457,378.723389 601.543457,360.336548 
	C596.260193,360.336548 591.351257,360.336548 586.169373,360.336548 
	C586.169373,378.318298 586.123901,395.948273 586.288086,413.576355 
	C586.297424,414.579285 588.023132,415.566223 589.857849,416.564087 
M427.885590,458.748108 
	C427.996796,459.234100 427.993286,459.790527 428.240356,460.193115 
	C429.035461,461.488678 429.922943,462.727570 430.774841,463.988281 
	C431.746033,462.671967 433.079041,461.487823 433.617767,460.013489 
	C435.003143,456.222229 436.036499,452.302307 437.210510,448.433807 
	C438.745209,463.216156 438.745209,463.216156 440.761536,463.750519 
	C440.761536,456.162628 440.761536,448.628204 440.761536,439.581268 
	C432.686279,443.717163 435.136383,452.584106 430.491486,457.640259 
	C428.996552,452.879150 427.415619,448.529236 426.300110,444.063019 
	C425.485413,440.801086 423.930634,440.039062 421.342468,441.161102 
	C421.342468,448.933075 421.342468,456.429901 421.342468,463.926697 
	C421.796753,463.965057 422.251007,464.003387 422.705292,464.041748 
	C425.594391,459.350342 422.727539,453.695862 424.503906,448.031738 
	C425.693512,451.772400 426.679749,454.873657 427.885590,458.748108 
M488.276184,448.656128 
	C488.276367,452.654449 488.144165,456.659912 488.360443,460.646515 
	C488.422241,461.785248 489.494415,462.869110 490.103302,463.978149 
	C490.580933,462.911041 491.427704,461.858521 491.470581,460.774231 
	C491.633362,456.656036 491.536133,452.527588 491.536133,448.402954 
	C494.814850,452.636902 496.650848,457.072449 498.980042,461.231812 
	C499.802826,462.701080 501.830170,463.495789 503.897461,465.038788 
	C503.897461,455.874634 503.897461,448.354340 503.897461,440.834045 
	C503.435059,440.786774 502.972626,440.739502 502.510223,440.692200 
	C499.395844,445.523224 502.477753,451.586395 500.393890,457.630463 
	C497.893250,452.233582 495.992004,447.632080 493.614166,443.291656 
	C492.867645,441.928925 490.839966,441.268005 488.277008,439.521515 
	C488.277008,443.451843 488.277008,445.584198 488.276184,448.656128 
M333.850281,442.692902 
	C332.421997,441.924957 330.993744,441.157043 329.374084,440.286224 
	C329.374084,448.958435 329.374084,456.453278 329.374084,463.948120 
	C329.841675,463.981995 330.309235,464.015839 330.776825,464.049713 
	C333.485535,458.944824 330.886871,453.015320 332.481171,446.736816 
	C334.973419,452.093719 336.917450,456.787811 339.350983,461.212738 
	C340.162018,462.687439 342.226868,463.472595 344.373871,465.056366 
	C345.881775,449.568054 345.173981,442.130585 341.572601,440.690277 
	C341.572601,446.211456 341.572601,451.429474 341.572601,456.647491 
	C341.187469,456.682251 340.802368,456.717010 340.417236,456.751740 
	C338.309265,452.294952 336.201294,447.838196 333.850281,442.692902 
M278.791290,351.136536 
	C279.312866,347.092377 279.834442,343.048218 280.396088,338.693329 
	C274.495483,338.693329 269.583435,338.693329 264.419495,338.693329 
	C264.419495,342.898010 264.419495,346.824615 264.419495,351.214233 
	C268.968445,351.214233 273.435974,351.214233 278.791290,351.136536 
M591.681763,338.410339 
	C589.924438,338.410339 588.167114,338.410339 586.461121,338.410339 
	C586.461121,343.095337 586.461121,347.001221 586.461121,351.002869 
	C591.720398,351.002869 596.666565,351.002869 601.695190,351.002869 
	C601.695190,346.838531 601.695190,342.902069 601.695190,338.410614 
	C598.518738,338.410614 595.563660,338.410614 591.681763,338.410339 
M212.017883,450.101990 
	C212.017883,449.245911 212.017883,448.389832 212.017883,447.533752 
	C215.162354,451.980927 217.116714,456.691010 219.545959,461.141907 
	C220.356506,462.627045 222.382233,463.448944 223.852448,464.574036 
	C224.961136,456.781860 225.027634,450.145477 224.887375,443.513458 
	C224.867004,442.550751 223.856598,441.609039 223.304321,440.657593 
	C222.825272,440.811707 222.346207,440.965851 221.867157,441.119965 
	C221.867157,446.573669 221.867157,452.027344 221.867157,457.481049 
	C218.773010,452.975983 216.783539,448.261414 214.343567,443.792786 
	C213.535141,442.312164 211.567307,441.464600 210.129547,440.327606 
	C209.001831,448.140900 208.935791,454.777924 209.075165,461.410675 
	C209.095367,462.372253 210.099884,463.313171 210.648911,464.263641 
	C211.105042,464.111664 211.561172,463.959717 212.017303,463.807739 
	C212.017303,459.529083 212.017303,455.250397 212.017883,450.101990 
M393.077026,464.029816 
	C405.079407,464.082733 405.080780,464.082733 405.072601,451.906219 
	C405.071503,450.251221 405.112122,448.592712 405.022552,446.941864 
	C404.763336,442.165802 401.899200,440.408234 397.442871,440.334351 
	C391.592773,440.237427 388.986847,441.842041 388.602570,446.626465 
	C388.286011,450.568115 388.173492,454.612915 388.734863,458.501617 
	C389.014862,460.441071 391.006348,462.133453 393.077026,464.029816 
M245.264053,461.091156 
	C244.126373,459.783356 242.988678,458.475555 241.850998,457.167755 
	C241.311630,457.501221 240.772278,457.834717 240.232910,458.168213 
	C241.113983,459.843811 241.596619,462.331177 242.969376,463.005005 
	C245.033920,464.018341 247.720200,463.775146 250.144714,464.042603 
	C253.744186,464.439606 255.862701,462.755707 256.515961,459.278778 
	C257.137634,455.969971 256.090210,453.277954 252.877487,451.943756 
	C250.752884,451.061493 248.322006,450.876465 246.266037,449.885803 
	C245.216934,449.380310 244.064087,447.763275 244.106094,446.693756 
	C244.147995,445.627197 245.760757,443.661499 246.447540,443.759125 
	C248.612259,444.066864 250.700653,445.078857 252.744873,445.984650 
	C253.560928,446.346283 254.184296,447.142731 255.682968,448.404053 
	C255.846283,442.985321 253.697983,440.904114 249.749527,440.387421 
	C244.639832,439.718811 241.408432,441.524597 240.870682,445.342560 
	C240.285324,449.498657 242.107483,451.995544 246.212128,452.914642 
	C247.982666,453.311066 249.839493,453.637482 251.432175,454.441376 
	C254.050751,455.763092 254.354584,459.842072 251.854782,460.908997 
	C250.165695,461.629852 248.009674,461.256714 245.264053,461.091156 
M546.614014,459.658722 
	C551.136292,457.129425 551.880615,464.215942 556.059937,463.869720 
	C553.862915,456.575592 551.925598,449.892548 549.777039,443.278107 
	C549.449829,442.270782 548.171692,440.968079 547.281860,440.927368 
	C546.483032,440.890839 545.234802,442.256409 544.846252,443.259674 
	C543.711853,446.189117 542.883728,449.239319 541.981201,452.255829 
	C540.843201,456.059143 539.750244,459.875946 538.286865,464.889496 
	C541.658813,462.518829 543.691467,461.089722 546.614014,459.658722 
M311.792053,456.549835 
	C310.426788,452.101898 309.163177,447.618195 307.618927,443.233276 
	C307.268127,442.237183 306.047668,441.356812 305.016205,440.888458 
	C304.625336,440.710968 303.212677,441.709442 302.988678,442.404755 
	C300.723969,449.434967 298.609192,456.513458 296.297546,464.085419 
	C299.753876,462.350250 302.443604,459.936310 305.121460,459.949432 
	C307.897125,459.963013 310.661316,462.328491 313.877655,463.881195 
	C313.161377,461.388824 312.576385,459.353333 311.792053,456.549835 
M456.293762,462.560181 
	C457.264221,462.694427 458.786591,463.291107 459.120819,462.892242 
	C462.981293,458.285004 466.894806,458.294739 470.282562,462.988129 
	C470.712524,463.583832 471.801544,463.703827 473.713379,464.534180 
	C471.398438,456.905304 469.477753,450.295349 467.330353,443.759888 
	C466.948486,442.597626 465.624664,441.744904 464.735779,440.749268 
	C463.834625,441.739410 462.491394,442.583069 462.106598,443.744324 
	C460.124390,449.725983 458.388092,455.789093 456.293762,462.560181 
M189.754181,456.360321 
	C189.755737,458.018860 189.599487,459.698761 189.820206,461.327606 
	C189.945175,462.249817 190.688873,463.088257 191.153885,463.964417 
	C191.733383,463.187469 192.798553,462.420929 192.815521,461.631897 
	C192.951065,455.332489 192.955383,449.027100 192.797440,442.728638 
	C192.778519,441.974579 191.546982,441.250977 190.877518,440.513245 
	C190.503128,440.710175 190.128754,440.907074 189.754364,441.103973 
	C189.754364,445.871124 189.754364,450.638306 189.754181,456.360321 
M523.300720,463.653137 
	C523.461426,456.909790 523.679382,450.166718 523.712646,443.422760 
	C523.716980,442.546692 522.769165,441.665955 522.262390,440.787354 
	C521.651428,441.725586 520.537415,442.650208 520.511597,443.604340 
	C520.350464,449.548523 520.349548,455.501770 520.526550,461.445160 
	C520.552429,462.313690 521.810913,463.145477 523.300720,463.653137 
M280.237335,440.817596 
	C276.850403,440.817596 273.463440,440.817596 270.076508,440.817596 
	C270.064972,441.443542 270.053406,442.069519 270.041870,442.695465 
	C271.844330,442.984650 273.646820,443.273865 275.956360,443.644409 
	C275.956360,450.431030 275.956360,457.138794 275.956360,463.846558 
	C276.840393,463.943604 277.724426,464.040680 278.608459,464.137756 
	C279.442322,457.374847 278.517609,450.351990 279.087402,443.689667 
	C281.232239,443.226166 282.983368,442.847717 284.734497,442.469299 
	C284.710510,442.108856 284.686523,441.748444 284.662506,441.388000 
	C283.490265,441.197937 282.317993,441.007874 280.237335,440.817596 
M368.915833,453.494995 
	C368.915833,450.207153 368.915833,446.919342 368.915833,443.719177 
	C371.187073,443.236603 372.946472,442.862793 374.705902,442.488983 
	C374.641541,442.186432 374.577209,441.883911 374.512848,441.581360 
	C369.709747,441.581360 364.906647,441.581360 360.103546,441.581360 
	C360.094666,441.948395 360.085815,442.315399 360.076935,442.682434 
	C361.919647,443.008423 363.762360,443.334381 365.904266,443.713287 
	C365.904266,447.227997 365.904266,450.530945 365.904266,453.833862 
	C365.904266,457.195587 365.904266,460.557343 365.904266,463.919067 
	C366.700714,464.008667 367.497162,464.098267 368.293610,464.187897 
	C368.501007,460.949066 368.708405,457.710266 368.915833,453.494995 
z"/>
<path fill="#0695CB" opacity="1.000000" stroke="none" 
	d="
M320.621216,217.105957 
	C339.674561,217.165573 358.289795,217.165573 377.295471,217.165573 
	C377.295471,226.806107 377.295471,235.844086 377.295471,244.886459 
	C377.007233,245.068344 376.732361,245.393829 376.459015,245.392578 
	C356.998596,245.304260 337.498779,245.922043 318.088867,244.875183 
	C298.007965,243.792160 281.106323,224.040054 281.303589,203.734528 
	C281.508942,182.598801 297.530762,164.283417 317.699860,162.160385 
	C318.839966,162.040390 320.003662,162.144867 321.485321,162.144867 
	C321.485321,171.289368 321.485321,180.361725 321.485321,189.423645 
	C313.142090,192.471863 309.307770,196.858719 309.296906,203.338409 
	C309.285980,209.849915 313.168579,214.738922 320.621216,217.105957 
z"/>
<path fill="#0494CB" opacity="1.000000" stroke="none" 
	d="
M456.144165,178.891357 
	C471.088837,202.130829 464.802094,228.529205 441.256805,240.909866 
	C436.283356,243.525024 430.451843,244.508286 424.082306,246.541351 
	C424.082306,236.511047 423.993286,227.906937 424.211456,219.310608 
	C424.234894,218.388885 425.901154,217.191025 427.053467,216.667603 
	C434.254059,213.396942 437.496185,207.553818 435.968781,200.244614 
	C434.665436,194.007523 429.012268,189.667953 421.552734,189.616470 
	C405.733582,189.507278 389.913147,189.579880 374.093262,189.578003 
	C372.296448,189.577789 370.499664,189.577972 368.441772,189.577972 
	C368.441772,180.156723 368.441772,171.268326 368.441772,161.830978 
	C370.951019,161.830978 373.233307,161.830780 375.515594,161.831009 
	C391.002441,161.832550 406.489868,161.919159 421.975952,161.810791 
	C436.163025,161.711502 447.350464,167.480530 456.144165,178.891357 
z"/>
<path fill="#0293CA" opacity="1.000000" stroke="none" 
	d="
M386.936462,231.000000 
	C386.936462,220.198120 386.936462,209.896225 386.936462,199.296860 
	C396.310181,199.296860 405.360962,199.296860 414.905212,199.296860 
	C414.905212,215.922821 414.964386,232.369308 414.862518,248.814804 
	C414.837860,252.794189 414.558014,256.814972 413.923523,260.740448 
	C410.544281,281.646912 391.612549,296.363861 370.183105,294.899353 
	C348.421875,293.412170 331.978302,276.700134 331.352295,255.139954 
	C340.454071,255.139954 349.553772,255.139954 358.645538,255.139954 
	C359.665344,257.206055 360.433380,259.465088 361.763916,261.320831 
	C365.220551,266.141907 371.253937,268.052216 376.847839,266.408234 
	C382.780090,264.664825 386.740570,259.580292 386.892822,252.991165 
	C387.058258,245.830933 386.934235,238.664001 386.936462,231.000000 
z"/>
<path fill="#0293CA" opacity="1.000000" stroke="none" 
	d="
M330.996002,163.004150 
	C331.593567,155.742783 331.336975,148.768951 332.949066,142.257782 
	C337.672150,123.180984 354.738861,111.605019 374.420349,112.370041 
	C395.420929,113.186325 410.576111,126.812851 413.976776,146.674072 
	C414.253784,148.292007 414.418396,149.929199 414.712830,152.140213 
	C405.870453,152.140213 397.250092,152.231293 388.638000,152.006943 
	C387.722595,151.983078 386.566467,150.248642 386.013245,149.076035 
	C382.807098,142.280182 376.947296,138.915344 370.384735,140.288986 
	C363.338104,141.763947 359.038422,147.016083 359.008911,154.575958 
	C358.940094,172.204468 358.986969,189.833435 358.986969,207.811646 
	C349.644684,207.811646 340.600861,207.811646 330.995667,207.811646 
	C330.995667,193.032440 330.995667,178.267776 330.996002,163.004150 
z"/>
<path fill="#3A3F47" opacity="1.000000" stroke="none" 
	d="
M177.017227,354.013733 
	C178.730255,352.164948 180.522537,350.777435 181.639709,348.972198 
	C188.899490,337.240997 199.923004,337.068512 212.204605,339.087982 
	C201.977066,348.814697 191.935562,358.364471 181.783157,368.019745 
	C193.611542,384.774445 204.492447,400.187103 215.997009,416.483154 
	C208.582642,416.483154 202.151047,416.650757 195.743332,416.334381 
	C194.536545,416.274811 193.184235,414.450012 192.307648,413.161774 
	C185.295059,402.856018 178.380783,392.483398 171.204025,381.784851 
	C165.443115,386.812866 159.482742,391.014984 160.949158,400.122192 
	C161.781982,405.294403 161.099625,410.710571 161.099625,416.271118 
	C155.291458,416.271118 149.868607,416.271118 144.220856,416.271118 
	C144.220856,390.463440 144.220856,364.860962 144.220856,338.861816 
	C149.720398,338.861816 155.243195,338.861816 161.066284,338.861816 
	C161.066284,349.129639 161.066284,359.239868 161.066284,370.770813 
	C166.862534,364.690247 171.823395,359.486023 177.017227,354.013733 
z"/>
<path fill="#40444C" opacity="1.000000" stroke="none" 
	d="
M559.921265,359.025146 
	C569.347412,361.181946 573.356323,367.696320 573.680908,376.137238 
	C574.191284,389.409027 573.816406,402.714813 573.816406,416.283264 
	C568.792664,416.283264 563.892395,416.283264 558.438477,416.283264 
	C558.438477,407.764252 558.476685,399.489441 558.421509,391.215210 
	C558.395996,387.390991 558.354248,383.553436 558.019897,379.748260 
	C557.624390,375.246368 555.728516,371.743805 550.711304,371.019165 
	C544.494324,370.121277 539.640137,372.248047 538.137085,377.343506 
	C537.030457,381.095001 536.744019,385.175262 536.653198,389.121948 
	C536.447510,398.066071 536.588501,407.018127 536.588501,416.260071 
	C531.203735,416.260071 526.307556,416.260071 521.208557,416.260071 
	C521.208557,390.348999 521.208557,364.633972 521.208557,338.678650 
	C526.208679,338.678650 530.985718,338.678650 536.350769,338.678650 
	C536.350769,347.731354 536.350769,356.782440 536.350769,367.343170 
	C543.336182,359.817810 550.793884,357.300995 559.921265,359.025146 
z"/>
<path fill="#3D4249" opacity="1.000000" stroke="none" 
	d="
M367.321960,385.183411 
	C373.938263,384.052521 380.173737,383.055420 386.399750,382.002197 
	C389.633423,381.455200 392.064850,380.079285 392.051636,376.255341 
	C392.038055,372.334808 390.033264,370.047485 386.345093,369.142426 
	C378.725891,367.272827 374.202820,369.708008 371.505951,377.284119 
	C366.684113,377.284119 361.766693,377.284119 356.381073,377.284119 
	C356.663422,371.068604 358.987976,366.076019 364.278473,363.168793 
	C375.646362,356.921967 387.570099,357.037445 399.443176,361.551605 
	C405.701233,363.930908 407.666473,369.421692 407.753601,375.664429 
	C407.846527,382.324341 407.779572,388.986450 407.780731,395.647614 
	C407.781921,402.413788 407.781006,409.179932 407.781006,416.535583 
	C404.525604,416.535583 400.216644,416.872406 396.013641,416.352692 
	C394.545471,416.171112 393.338379,413.878357 391.717072,412.254242 
	C386.489838,416.346771 379.819214,418.347443 372.400726,417.983917 
	C363.079193,417.527130 356.279816,412.589783 354.985199,405.178864 
	C353.209473,395.013489 356.692596,389.218506 367.321960,385.183411 
M388.388306,404.969757 
	C392.895538,400.486115 392.243073,394.983765 391.799347,389.268433 
	C390.335297,389.724487 389.257996,390.146423 388.141907,390.392578 
	C383.794617,391.351257 379.342438,391.955383 375.107849,393.267578 
	C371.385284,394.421112 369.706940,397.455627 370.099915,401.423035 
	C370.472015,405.180115 372.904480,407.275574 376.359528,407.201874 
	C380.186401,407.120300 383.993164,406.095825 388.388306,404.969757 
z"/>
<path fill="#3C4149" opacity="1.000000" stroke="none" 
	d="
M467.079407,365.030792 
	C468.362457,369.251617 470.137939,373.144806 470.327209,377.113647 
	C470.795044,386.925293 470.452698,396.772980 470.618408,406.603119 
	C470.670929,409.718781 471.299622,412.824677 471.664886,415.937164 
	C461.233917,418.012054 456.887756,416.999451 455.283936,411.794373 
	C447.402863,417.448181 438.803802,419.600891 429.372711,416.952698 
	C421.509247,414.744690 417.450287,409.387451 417.264465,401.265076 
	C417.092468,393.746796 420.595154,388.248871 428.322937,386.004059 
	C434.827820,384.114441 441.655701,383.305939 448.365112,382.162842 
	C452.197174,381.510010 455.245514,380.196594 454.851807,375.605591 
	C454.475281,371.215057 451.627899,369.299744 447.490509,368.898895 
	C439.911011,368.164612 436.984528,369.977203 434.194275,377.322083 
	C429.333466,377.322083 424.394226,377.322083 419.211884,377.322083 
	C419.248596,371.750031 421.413483,367.443085 425.509857,364.175781 
	C435.319916,356.351379 457.111084,356.699371 467.079407,365.030792 
M450.712402,390.474915 
	C446.353149,391.412659 441.907593,392.069672 437.661133,393.374512 
	C434.084167,394.473663 432.671906,397.424377 432.920624,401.198944 
	C433.155426,404.762085 435.191010,406.377350 438.460754,407.198273 
	C450.164520,410.136810 457.024414,402.485809 454.328583,389.342926 
	C453.383026,389.628143 452.437775,389.913269 450.712402,390.474915 
z"/>
<path fill="#3C4149" opacity="1.000000" stroke="none" 
	d="
M345.078491,407.933624 
	C345.078491,410.907806 345.078491,413.392212 345.078491,416.208984 
	C339.928864,416.208984 335.048492,416.208984 329.616913,416.208984 
	C329.616913,407.457367 329.667633,398.850677 329.592987,390.245026 
	C329.561340,386.591644 329.431915,382.923218 329.050262,379.292816 
	C328.569397,374.718658 326.413055,371.476349 321.369171,370.965973 
	C315.303345,370.352203 310.599823,372.435486 309.183624,377.267914 
	C308.129150,380.865997 307.843414,384.774414 307.763763,388.556183 
	C307.571747,397.670288 307.701508,406.791199 307.701508,416.222961 
	C302.378632,416.222961 297.476379,416.222961 292.304901,416.222961 
	C292.304901,397.552277 292.304901,379.017731 292.304901,360.237762 
	C297.038361,360.237762 301.631012,360.237762 306.662384,360.237762 
	C306.794373,362.272736 306.928894,364.346710 307.125824,367.382935 
	C311.577179,361.927368 316.635406,358.966125 323.330292,358.540283 
	C336.441345,357.706238 344.397217,364.233246 344.898376,377.496521 
	C345.275055,387.466980 345.040833,397.460571 345.078491,407.933624 
z"/>
<path fill="#3C4149" opacity="1.000000" stroke="none" 
	d="
M502.112518,374.157074 
	C502.111877,381.143280 502.111298,387.641754 502.112000,394.140198 
	C502.113159,404.890839 502.243164,405.020691 513.254150,404.924408 
	C513.254150,408.779510 513.254150,412.635834 513.254150,417.459167 
	C507.262756,417.027435 501.435455,417.113586 495.819183,416.067108 
	C489.622192,414.912476 487.074615,411.524414 486.898651,405.194885 
	C486.634827,395.704590 486.743927,386.203888 486.697937,376.707611 
	C486.689178,374.901154 486.696716,373.094635 486.696716,370.915771 
	C483.445923,370.681641 480.531525,370.471771 477.397003,370.246033 
	C477.397003,366.924713 477.397003,363.825256 477.397003,360.201019 
	C480.271698,360.201019 483.175476,360.201019 486.552856,360.201019 
	C486.552856,354.302368 486.552856,348.897858 486.552856,343.249023 
	C491.917847,343.249023 496.807617,343.249023 502.019104,343.249023 
	C502.019104,348.723114 502.019104,353.998230 502.019104,359.781921 
	C505.883453,359.781921 509.454742,359.781921 513.321899,359.781921 
	C513.321899,363.523926 513.321899,366.753601 513.321899,370.548767 
	C510.486023,370.548767 507.808258,370.227570 505.273315,370.689728 
	C504.078552,370.907532 503.157959,372.629120 502.112518,374.157074 
z"/>
<path fill="#3F444C" opacity="1.000000" stroke="none" 
	d="
M236.999176,388.451111 
	C236.988434,397.889374 236.988434,406.872162 236.988434,416.206604 
	C231.774597,416.206604 226.866302,416.206604 221.580765,416.206604 
	C221.580765,397.651855 221.580765,379.123322 221.580765,360.288391 
	C226.168549,360.288391 230.753860,360.288391 235.956467,360.288391 
	C235.956467,362.967224 235.956467,365.800293 235.956467,370.066711 
	C241.819031,361.498016 248.297363,357.229523 257.667236,359.134766 
	C257.667236,363.914856 257.667236,368.366913 257.667236,371.633179 
	C251.954010,373.430237 246.092896,374.087921 241.816971,377.040955 
	C239.024612,378.969421 238.532425,384.228455 236.999176,388.451111 
z"/>
<path fill="#40454D" opacity="1.000000" stroke="none" 
	d="
M264.191315,409.847382 
	C264.191284,393.093842 264.191284,376.821014 264.191284,360.266602 
	C269.506592,360.266602 274.411926,360.266602 279.622131,360.266602 
	C279.622131,378.855347 279.622131,397.403320 279.622131,416.259216 
	C274.655731,416.259216 269.745087,416.259216 264.191345,416.259216 
	C264.191345,414.185699 264.191345,412.256897 264.191315,409.847382 
z"/>
<path fill="#40454D" opacity="1.000000" stroke="none" 
	d="
M589.403931,416.562378 
	C588.023132,415.566223 586.297424,414.579285 586.288086,413.576355 
	C586.123901,395.948273 586.169373,378.318298 586.169373,360.336548 
	C591.351257,360.336548 596.260193,360.336548 601.543457,360.336548 
	C601.543457,378.723389 601.543457,397.282745 601.543457,416.564087 
	C597.728149,416.564087 593.793030,416.564087 589.403931,416.562378 
z"/>
<path fill="#1099CD" opacity="1.000000" stroke="none" 
	d="
M427.775818,458.361511 
	C426.679749,454.873657 425.693512,451.772400 424.503906,448.031738 
	C422.727539,453.695862 425.594391,459.350342 422.705292,464.041748 
	C422.251007,464.003387 421.796753,463.965057 421.342468,463.926697 
	C421.342468,456.429901 421.342468,448.933075 421.342468,441.161102 
	C423.930634,440.039062 425.485413,440.801086 426.300110,444.063019 
	C427.415619,448.529236 428.996552,452.879150 430.491486,457.640259 
	C435.136383,452.584106 432.686279,443.717163 440.761536,439.581268 
	C440.761536,448.628204 440.761536,456.162628 440.761536,463.750519 
	C438.745209,463.216156 438.745209,463.216156 437.210510,448.433807 
	C436.036499,452.302307 435.003143,456.222229 433.617767,460.013489 
	C433.079041,461.487823 431.746033,462.671967 430.774841,463.988281 
	C429.922943,462.727570 429.035461,461.488678 428.240356,460.193115 
	C427.993286,459.790527 427.996796,459.234100 427.775818,458.361511 
z"/>
<path fill="#1D9ED0" opacity="1.000000" stroke="none" 
	d="
M488.276611,448.186340 
	C488.277008,445.584198 488.277008,443.451843 488.277008,439.521515 
	C490.839966,441.268005 492.867645,441.928925 493.614166,443.291656 
	C495.992004,447.632080 497.893250,452.233582 500.393890,457.630463 
	C502.477753,451.586395 499.395844,445.523224 502.510223,440.692200 
	C502.972626,440.739502 503.435059,440.786774 503.897461,440.834045 
	C503.897461,448.354340 503.897461,455.874634 503.897461,465.038788 
	C501.830170,463.495789 499.802826,462.701080 498.980042,461.231812 
	C496.650848,457.072449 494.814850,452.636902 491.536133,448.402954 
	C491.536133,452.527588 491.633362,456.656036 491.470581,460.774231 
	C491.427704,461.858521 490.580933,462.911041 490.103271,463.978149 
	C489.494415,462.869110 488.422241,461.785248 488.360443,460.646515 
	C488.144165,456.659912 488.276367,452.654449 488.276611,448.186340 
z"/>
<path fill="#159BCE" opacity="1.000000" stroke="none" 
	d="
M333.971802,443.037170 
	C336.201294,447.838196 338.309265,452.294952 340.417236,456.751740 
	C340.802368,456.717010 341.187469,456.682251 341.572601,456.647491 
	C341.572601,451.429474 341.572601,446.211456 341.572601,440.690277 
	C345.173981,442.130585 345.881775,449.568054 344.373871,465.056366 
	C342.226868,463.472595 340.162018,462.687439 339.350983,461.212738 
	C336.917450,456.787811 334.973419,452.093719 332.481171,446.736816 
	C330.886871,453.015320 333.485535,458.944824 330.776825,464.049713 
	C330.309235,464.015839 329.841675,463.981995 329.374084,463.948120 
	C329.374084,456.453278 329.374084,448.958435 329.374084,440.286224 
	C330.993744,441.157043 332.421997,441.924957 333.971802,443.037170 
z"/>
<path fill="#454A51" opacity="1.000000" stroke="none" 
	d="
M278.347382,351.175385 
	C273.435974,351.214233 268.968445,351.214233 264.419495,351.214233 
	C264.419495,346.824615 264.419495,342.898010 264.419495,338.693329 
	C269.583435,338.693329 274.495483,338.693329 280.396088,338.693329 
	C279.834442,343.048218 279.312866,347.092377 278.347382,351.175385 
z"/>
<path fill="#454A51" opacity="1.000000" stroke="none" 
	d="
M592.145142,338.410461 
	C595.563660,338.410614 598.518738,338.410614 601.695190,338.410614 
	C601.695190,342.902069 601.695190,346.838531 601.695190,351.002869 
	C596.666565,351.002869 591.720398,351.002869 586.461121,351.002869 
	C586.461121,347.001221 586.461121,343.095337 586.461121,338.410339 
	C588.167114,338.410339 589.924438,338.410339 592.145142,338.410461 
z"/>
<path fill="#0A96CC" opacity="1.000000" stroke="none" 
	d="
M212.017593,450.536865 
	C212.017303,455.250397 212.017303,459.529083 212.017303,463.807739 
	C211.561172,463.959717 211.105042,464.111664 210.648911,464.263641 
	C210.099884,463.313171 209.095367,462.372253 209.075165,461.410675 
	C208.935791,454.777924 209.001831,448.140900 210.129547,440.327606 
	C211.567307,441.464600 213.535141,442.312164 214.343567,443.792786 
	C216.783539,448.261414 218.773010,452.975983 221.867157,457.481049 
	C221.867157,452.027344 221.867157,446.573669 221.867157,441.119965 
	C222.346207,440.965851 222.825272,440.811707 223.304321,440.657593 
	C223.856598,441.609039 224.867004,442.550751 224.887375,443.513458 
	C225.027634,450.145477 224.961136,456.781860 223.852448,464.574036 
	C222.382233,463.448944 220.356506,462.627045 219.545959,461.141907 
	C217.116714,456.691010 215.162354,451.980927 212.017883,447.533752 
	C212.017883,448.389832 212.017883,449.245911 212.017593,450.536865 
z"/>
<path fill="#179CCF" opacity="1.000000" stroke="none" 
	d="
M392.650330,463.983704 
	C391.006348,462.133453 389.014862,460.441071 388.734863,458.501617 
	C388.173492,454.612915 388.286011,450.568115 388.602570,446.626465 
	C388.986847,441.842041 391.592773,440.237427 397.442871,440.334351 
	C401.899200,440.408234 404.763336,442.165802 405.022552,446.941864 
	C405.112122,448.592712 405.071503,450.251221 405.072601,451.906219 
	C405.080780,464.082733 405.079407,464.082733 392.650330,463.983704 
M393.244843,443.929016 
	C392.710419,448.040894 392.081146,452.143341 391.669220,456.267426 
	C391.284515,460.118805 392.805176,462.011719 397.064117,461.896484 
	C401.167267,461.785492 402.182404,459.735596 402.032074,456.224243 
	C401.947235,454.243408 402.024933,452.255920 402.017731,450.271454 
	C401.993011,443.468353 401.086304,442.712891 393.244843,443.929016 
z"/>
<path fill="#189CCF" opacity="1.000000" stroke="none" 
	d="
M245.663300,461.232056 
	C248.009674,461.256714 250.165695,461.629852 251.854782,460.908997 
	C254.354584,459.842072 254.050751,455.763092 251.432175,454.441376 
	C249.839493,453.637482 247.982666,453.311066 246.212128,452.914642 
	C242.107483,451.995544 240.285324,449.498657 240.870682,445.342560 
	C241.408432,441.524597 244.639832,439.718811 249.749527,440.387421 
	C253.697983,440.904114 255.846283,442.985321 255.682968,448.404053 
	C254.184296,447.142731 253.560928,446.346283 252.744873,445.984650 
	C250.700653,445.078857 248.612259,444.066864 246.447540,443.759125 
	C245.760757,443.661499 244.147995,445.627197 244.106094,446.693756 
	C244.064087,447.763275 245.216934,449.380310 246.266037,449.885803 
	C248.322006,450.876465 250.752884,451.061493 252.877487,451.943756 
	C256.090210,453.277954 257.137634,455.969971 256.515961,459.278778 
	C255.862701,462.755707 253.744186,464.439606 250.144714,464.042603 
	C247.720200,463.775146 245.033920,464.018341 242.969376,463.005005 
	C241.596619,462.331177 241.113983,459.843811 240.232910,458.168213 
	C240.772278,457.834717 241.311630,457.501221 241.850998,457.167755 
	C242.988678,458.475555 244.126373,459.783356 245.663300,461.232056 
z"/>
<path fill="#189CCF" opacity="1.000000" stroke="none" 
	d="
M546.169067,459.659668 
	C543.691467,461.089722 541.658813,462.518829 538.286865,464.889496 
	C539.750244,459.875946 540.843201,456.059143 541.981201,452.255829 
	C542.883728,449.239319 543.711853,446.189117 544.846252,443.259674 
	C545.234802,442.256409 546.483032,440.890839 547.281860,440.927368 
	C548.171692,440.968079 549.449829,442.270782 549.777039,443.278107 
	C551.925598,449.892548 553.862915,456.575592 556.059937,463.869720 
	C551.880615,464.215942 551.136292,457.129425 546.169067,459.659668 
M549.835388,452.660736 
	C549.100525,450.326752 548.365601,447.992737 547.242615,444.426361 
	C545.862427,449.111877 544.812500,452.675995 543.659973,456.588684 
	C546.371033,456.588684 548.446411,456.588684 550.725525,456.588684 
	C550.441101,455.337219 550.223328,454.379242 549.835388,452.660736 
z"/>
<path fill="#179CCF" opacity="1.000000" stroke="none" 
	d="
M311.891724,456.933838 
	C312.576385,459.353333 313.161377,461.388824 313.877655,463.881195 
	C310.661316,462.328491 307.897125,459.963013 305.121460,459.949432 
	C302.443604,459.936310 299.753876,462.350250 296.297546,464.085419 
	C298.609192,456.513458 300.723969,449.434967 302.988678,442.404755 
	C303.212677,441.709442 304.625336,440.710968 305.016205,440.888458 
	C306.047668,441.356812 307.268127,442.237183 307.618927,443.233276 
	C309.163177,447.618195 310.426788,452.101898 311.891724,456.933838 
M302.762909,452.394867 
	C302.472229,453.729614 302.181549,455.064362 301.835266,456.654541 
	C304.409943,456.654541 306.341248,456.654541 308.756409,456.654541 
	C307.643280,452.827484 306.620667,449.311584 305.208618,444.456818 
	C304.200317,447.661407 303.577545,449.640625 302.762909,452.394867 
z"/>
<path fill="#179CCF" opacity="1.000000" stroke="none" 
	d="
M456.429840,462.191956 
	C458.388092,455.789093 460.124390,449.725983 462.106598,443.744324 
	C462.491394,442.583069 463.834625,441.739410 464.735779,440.749268 
	C465.624664,441.744904 466.948486,442.597626 467.330353,443.759888 
	C469.477753,450.295349 471.398438,456.905304 473.713379,464.534180 
	C471.801544,463.703827 470.712524,463.583832 470.282562,462.988129 
	C466.894806,458.294739 462.981293,458.285004 459.120819,462.892242 
	C458.786591,463.291107 457.264221,462.694427 456.429840,462.191956 
M467.161255,452.436218 
	C466.419922,450.149017 465.678589,447.861816 464.623688,444.607269 
	C463.273224,449.276337 462.241669,452.842773 461.139099,456.654816 
	C463.684540,456.654816 465.632599,456.654816 467.971558,456.654816 
	C467.759857,455.342102 467.586975,454.270355 467.161255,452.436218 
z"/>
<path fill="#159BCE" opacity="1.000000" stroke="none" 
	d="
M189.754272,455.882874 
	C189.754364,450.638306 189.754364,445.871124 189.754364,441.103973 
	C190.128754,440.907074 190.503128,440.710175 190.877518,440.513245 
	C191.546982,441.250977 192.778519,441.974579 192.797440,442.728638 
	C192.955383,449.027100 192.951065,455.332489 192.815521,461.631897 
	C192.798553,462.420929 191.733383,463.187469 191.153885,463.964417 
	C190.688873,463.088257 189.945175,462.249817 189.820206,461.327606 
	C189.599487,459.698761 189.755737,458.018860 189.754272,455.882874 
z"/>
<path fill="#24A1D1" opacity="1.000000" stroke="none" 
	d="
M522.899902,463.823700 
	C521.810913,463.145477 520.552429,462.313690 520.526550,461.445160 
	C520.349548,455.501770 520.350464,449.548523 520.511597,443.604340 
	C520.537415,442.650208 521.651428,441.725586 522.262390,440.787354 
	C522.769165,441.665955 523.716980,442.546692 523.712646,443.422760 
	C523.679382,450.166718 523.461426,456.909790 522.899902,463.823700 
z"/>
<path fill="#0A96CC" opacity="1.000000" stroke="none" 
	d="
M280.691528,440.817688 
	C282.317993,441.007874 283.490265,441.197937 284.662506,441.388000 
	C284.686523,441.748444 284.710510,442.108856 284.734497,442.469299 
	C282.983368,442.847717 281.232239,443.226166 279.087402,443.689667 
	C278.517609,450.351990 279.442322,457.374847 278.608459,464.137756 
	C277.724426,464.040680 276.840393,463.943604 275.956360,463.846558 
	C275.956360,457.138794 275.956360,450.431030 275.956360,443.644409 
	C273.646820,443.273865 271.844330,442.984650 270.041870,442.695465 
	C270.053406,442.069519 270.064972,441.443542 270.076508,440.817596 
	C273.463440,440.817596 276.850403,440.817596 280.691528,440.817688 
z"/>
<path fill="#0A96CC" opacity="1.000000" stroke="none" 
	d="
M368.915802,453.983215 
	C368.708405,457.710266 368.501007,460.949066 368.293610,464.187897 
	C367.497162,464.098267 366.700714,464.008667 365.904266,463.919067 
	C365.904266,460.557343 365.904266,457.195587 365.904266,453.833862 
	C365.904266,450.530945 365.904266,447.227997 365.904266,443.713287 
	C363.762360,443.334381 361.919647,443.008423 360.076935,442.682434 
	C360.085815,442.315399 360.094666,441.948395 360.103546,441.581360 
	C364.906647,441.581360 369.709747,441.581360 374.512848,441.581360 
	C374.577209,441.883911 374.641541,442.186432 374.705902,442.488983 
	C372.946472,442.862793 371.187073,443.236603 368.915833,443.719177 
	C368.915833,446.919342 368.915833,450.207153 368.915802,453.983215 
z"/>
<path fill="#FAFAFA" opacity="1.000000" stroke="none" 
	d="
M388.098511,405.225861 
	C383.993164,406.095825 380.186401,407.120300 376.359528,407.201874 
	C372.904480,407.275574 370.472015,405.180115 370.099915,401.423035 
	C369.706940,397.455627 371.385284,394.421112 375.107849,393.267578 
	C379.342438,391.955383 383.794617,391.351257 388.141907,390.392578 
	C389.257996,390.146423 390.335297,389.724487 391.799347,389.268433 
	C392.243073,394.983765 392.895538,400.486115 388.098511,405.225861 
z"/>
<path fill="#FAFAFA" opacity="1.000000" stroke="none" 
	d="
M451.102478,390.336670 
	C452.437775,389.913269 453.383026,389.628143 454.328583,389.342926 
	C457.024414,402.485809 450.164520,410.136810 438.460754,407.198273 
	C435.191010,406.377350 433.155426,404.762085 432.920624,401.198944 
	C432.671906,397.424377 434.084167,394.473663 437.661133,393.374512 
	C441.907593,392.069672 446.353149,391.412659 451.102478,390.336670 
z"/>
<path fill="#F8FCFD" opacity="1.000000" stroke="none" 
	d="
M393.639099,443.766296 
	C401.086304,442.712891 401.993011,443.468353 402.017731,450.271454 
	C402.024933,452.255920 401.947235,454.243408 402.032074,456.224243 
	C402.182404,459.735596 401.167267,461.785492 397.064117,461.896484 
	C392.805176,462.011719 391.284515,460.118805 391.669220,456.267426 
	C392.081146,452.143341 392.710419,448.040894 393.639099,443.766296 
z"/>
<path fill="#E4F4F9" opacity="1.000000" stroke="none" 
	d="
M549.920532,453.040985 
	C550.223328,454.379242 550.441101,455.337219 550.725525,456.588684 
	C548.446411,456.588684 546.371033,456.588684 543.659973,456.588684 
	C544.812500,452.675995 545.862427,449.111877 547.242615,444.426361 
	C548.365601,447.992737 549.100525,450.326752 549.920532,453.040985 
z"/>
<path fill="#E4F4F9" opacity="1.000000" stroke="none" 
	d="
M302.858856,452.007355 
	C303.577545,449.640625 304.200317,447.661407 305.208618,444.456818 
	C306.620667,449.311584 307.643280,452.827484 308.756409,456.654541 
	C306.341248,456.654541 304.409943,456.654541 301.835266,456.654541 
	C302.181549,455.064362 302.472229,453.729614 302.858856,452.007355 
z"/>
<path fill="#E4F4F9" opacity="1.000000" stroke="none" 
	d="
M467.287689,452.817383 
	C467.586975,454.270355 467.759857,455.342102 467.971558,456.654816 
	C465.632599,456.654816 463.684540,456.654816 461.139099,456.654816 
	C462.241669,452.842773 463.273224,449.276337 464.623688,444.607269 
	C465.678589,447.861816 466.419922,450.149017 467.287689,452.817383 
z"/>
</svg>